<mxfile host="app.diagrams.net" modified="2023-10-11T18:04:18.852Z" agent="Mozilla/5.0 (X11; Ubuntu; Linux x86_64; rv:109.0) Gecko/20100101 Firefox/118.0" etag="dfkvpk4DwiuR1eofU-o_" version="22.0.4" type="github">
  <diagram name="Page-1" id="5d7acffa-a066-3a61-03fe-96351882024d">
    <mxGraphModel dx="2680" dy="1050" grid="1" gridSize="10" guides="1" tooltips="1" connect="1" arrows="1" fold="1" page="1" pageScale="1" pageWidth="1100" pageHeight="850" background="#ffffff" math="0" shadow="0">
      <root>
        <mxCell id="0" />
        <mxCell id="1" parent="0" />
        <mxCell id="VRv8X2df5_04e_JHK62C-7" style="edgeStyle=orthogonalEdgeStyle;rounded=0;orthogonalLoop=1;jettySize=auto;html=1;exitX=1;exitY=0.5;exitDx=0;exitDy=0;entryX=0.5;entryY=0;entryDx=0;entryDy=0;" edge="1" parent="1" source="VRv8X2df5_04e_JHK62C-1" target="VRv8X2df5_04e_JHK62C-27">
          <mxGeometry relative="1" as="geometry">
            <mxPoint x="460" y="230" as="targetPoint" />
          </mxGeometry>
        </mxCell>
        <mxCell id="VRv8X2df5_04e_JHK62C-8" value="airmar_data" style="edgeLabel;html=1;align=center;verticalAlign=middle;resizable=0;points=[];" vertex="1" connectable="0" parent="VRv8X2df5_04e_JHK62C-7">
          <mxGeometry x="0.05" y="1" relative="1" as="geometry">
            <mxPoint x="-8" y="1" as="offset" />
          </mxGeometry>
        </mxCell>
        <mxCell id="VRv8X2df5_04e_JHK62C-1" value="airmar_reader.py" style="whiteSpace=wrap;html=1;aspect=fixed;" vertex="1" parent="1">
          <mxGeometry x="50" y="250" width="100" height="100" as="geometry" />
        </mxCell>
        <mxCell id="VRv8X2df5_04e_JHK62C-4" style="edgeStyle=orthogonalEdgeStyle;rounded=0;orthogonalLoop=1;jettySize=auto;html=1;exitX=1;exitY=0.25;exitDx=0;exitDy=0;entryX=0;entryY=0.25;entryDx=0;entryDy=0;" edge="1" parent="1">
          <mxGeometry relative="1" as="geometry">
            <mxPoint x="-60" y="299.5" as="sourcePoint" />
            <mxPoint x="50" y="299.5" as="targetPoint" />
          </mxGeometry>
        </mxCell>
        <mxCell id="VRv8X2df5_04e_JHK62C-5" value="Serial over USB" style="edgeLabel;html=1;align=center;verticalAlign=middle;resizable=0;points=[];" vertex="1" connectable="0" parent="VRv8X2df5_04e_JHK62C-4">
          <mxGeometry x="-0.1818" y="1" relative="1" as="geometry">
            <mxPoint x="5" y="2" as="offset" />
          </mxGeometry>
        </mxCell>
        <mxCell id="VRv8X2df5_04e_JHK62C-3" value="maretron NMEA 2000 Gateway" style="whiteSpace=wrap;html=1;aspect=fixed;" vertex="1" parent="1">
          <mxGeometry x="-160" y="250" width="100" height="100" as="geometry" />
        </mxCell>
        <mxCell id="VRv8X2df5_04e_JHK62C-10" style="edgeStyle=orthogonalEdgeStyle;rounded=0;orthogonalLoop=1;jettySize=auto;html=1;exitX=1;exitY=0.5;exitDx=0;exitDy=0;" edge="1" parent="1" source="VRv8X2df5_04e_JHK62C-9" target="VRv8X2df5_04e_JHK62C-38">
          <mxGeometry relative="1" as="geometry">
            <mxPoint x="280" y="405" as="targetPoint" />
          </mxGeometry>
        </mxCell>
        <mxCell id="VRv8X2df5_04e_JHK62C-11" value="battery_status" style="edgeLabel;html=1;align=center;verticalAlign=middle;resizable=0;points=[];" vertex="1" connectable="0" parent="VRv8X2df5_04e_JHK62C-10">
          <mxGeometry x="-0.0872" y="-2" relative="1" as="geometry">
            <mxPoint as="offset" />
          </mxGeometry>
        </mxCell>
        <mxCell id="VRv8X2df5_04e_JHK62C-9" value="&lt;div&gt;battery_monitor.py&lt;/div&gt;" style="whiteSpace=wrap;html=1;aspect=fixed;" vertex="1" parent="1">
          <mxGeometry x="-80" y="430" width="110" height="110" as="geometry" />
        </mxCell>
        <mxCell id="VRv8X2df5_04e_JHK62C-12" style="edgeStyle=orthogonalEdgeStyle;rounded=0;orthogonalLoop=1;jettySize=auto;html=1;exitX=0.5;exitY=0;exitDx=0;exitDy=0;entryX=0.25;entryY=1;entryDx=0;entryDy=0;" edge="1" parent="1" source="VRv8X2df5_04e_JHK62C-14" target="VRv8X2df5_04e_JHK62C-27">
          <mxGeometry relative="1" as="geometry">
            <mxPoint x="440" y="655" as="targetPoint" />
          </mxGeometry>
        </mxCell>
        <mxCell id="VRv8X2df5_04e_JHK62C-13" value="serial_rc" style="edgeLabel;html=1;align=center;verticalAlign=middle;resizable=0;points=[];" vertex="1" connectable="0" parent="VRv8X2df5_04e_JHK62C-12">
          <mxGeometry x="-0.0872" y="-2" relative="1" as="geometry">
            <mxPoint as="offset" />
          </mxGeometry>
        </mxCell>
        <mxCell id="VRv8X2df5_04e_JHK62C-42" style="edgeStyle=orthogonalEdgeStyle;rounded=0;orthogonalLoop=1;jettySize=auto;html=1;entryX=1;entryY=0.5;entryDx=0;entryDy=0;" edge="1" parent="1" source="VRv8X2df5_04e_JHK62C-14" target="VRv8X2df5_04e_JHK62C-38">
          <mxGeometry relative="1" as="geometry" />
        </mxCell>
        <mxCell id="VRv8X2df5_04e_JHK62C-14" value="&lt;div&gt;serial_rc_receiver.py&lt;/div&gt;" style="whiteSpace=wrap;html=1;aspect=fixed;" vertex="1" parent="1">
          <mxGeometry x="240" y="730" width="130" height="130" as="geometry" />
        </mxCell>
        <mxCell id="VRv8X2df5_04e_JHK62C-16" style="edgeStyle=orthogonalEdgeStyle;rounded=0;orthogonalLoop=1;jettySize=auto;html=1;exitX=1;exitY=0.5;exitDx=0;exitDy=0;entryX=0;entryY=0.5;entryDx=0;entryDy=0;" edge="1" parent="1" source="VRv8X2df5_04e_JHK62C-15" target="VRv8X2df5_04e_JHK62C-14">
          <mxGeometry relative="1" as="geometry" />
        </mxCell>
        <mxCell id="VRv8X2df5_04e_JHK62C-17" value="Serial" style="edgeLabel;html=1;align=center;verticalAlign=middle;resizable=0;points=[];" vertex="1" connectable="0" parent="VRv8X2df5_04e_JHK62C-16">
          <mxGeometry x="-0.04" y="-4" relative="1" as="geometry">
            <mxPoint as="offset" />
          </mxGeometry>
        </mxCell>
        <mxCell id="VRv8X2df5_04e_JHK62C-15" value="FrSky L9R Radio Receiver" style="whiteSpace=wrap;html=1;aspect=fixed;" vertex="1" parent="1">
          <mxGeometry x="40" y="745" width="100" height="100" as="geometry" />
        </mxCell>
        <mxCell id="VRv8X2df5_04e_JHK62C-19" style="edgeStyle=orthogonalEdgeStyle;rounded=0;orthogonalLoop=1;jettySize=auto;html=1;exitX=0;exitY=0.25;exitDx=0;exitDy=0;entryX=0.75;entryY=1;entryDx=0;entryDy=0;jumpStyle=arc;" edge="1" parent="1" source="VRv8X2df5_04e_JHK62C-18" target="VRv8X2df5_04e_JHK62C-27">
          <mxGeometry relative="1" as="geometry">
            <mxPoint x="780" y="590" as="targetPoint" />
            <Array as="points">
              <mxPoint x="550" y="780" />
              <mxPoint x="468" y="780" />
            </Array>
          </mxGeometry>
        </mxCell>
        <mxCell id="VRv8X2df5_04e_JHK62C-24" value="tt_telemetry" style="edgeLabel;html=1;align=center;verticalAlign=middle;resizable=0;points=[];" vertex="1" connectable="0" parent="VRv8X2df5_04e_JHK62C-19">
          <mxGeometry x="-0.2295" y="5" relative="1" as="geometry">
            <mxPoint y="43" as="offset" />
          </mxGeometry>
        </mxCell>
        <mxCell id="VRv8X2df5_04e_JHK62C-25" style="edgeStyle=orthogonalEdgeStyle;rounded=0;orthogonalLoop=1;jettySize=auto;html=1;exitX=1;exitY=0.75;exitDx=0;exitDy=0;entryX=0.25;entryY=1;entryDx=0;entryDy=0;jumpStyle=arc;jumpSize=12;" edge="1" parent="1" source="VRv8X2df5_04e_JHK62C-18" target="VRv8X2df5_04e_JHK62C-38">
          <mxGeometry relative="1" as="geometry">
            <mxPoint x="800" y="808" as="targetPoint" />
            <Array as="points">
              <mxPoint x="700" y="848" />
              <mxPoint x="700" y="690" />
              <mxPoint x="168" y="690" />
            </Array>
          </mxGeometry>
        </mxCell>
        <mxCell id="VRv8X2df5_04e_JHK62C-26" value="tt_battery" style="edgeLabel;html=1;align=center;verticalAlign=middle;resizable=0;points=[];" vertex="1" connectable="0" parent="VRv8X2df5_04e_JHK62C-25">
          <mxGeometry x="0.0892" relative="1" as="geometry">
            <mxPoint x="72" as="offset" />
          </mxGeometry>
        </mxCell>
        <mxCell id="VRv8X2df5_04e_JHK62C-18" value="&lt;div&gt;trim_tab_comms.py&lt;/div&gt;" style="whiteSpace=wrap;html=1;aspect=fixed;" vertex="1" parent="1">
          <mxGeometry x="550" y="750" width="130" height="130" as="geometry" />
        </mxCell>
        <mxCell id="VRv8X2df5_04e_JHK62C-30" style="edgeStyle=orthogonalEdgeStyle;rounded=0;orthogonalLoop=1;jettySize=auto;html=1;exitX=1;exitY=0.25;exitDx=0;exitDy=0;entryX=1;entryY=0.25;entryDx=0;entryDy=0;jumpStyle=arc;jumpSize=12;" edge="1" parent="1" source="VRv8X2df5_04e_JHK62C-27" target="VRv8X2df5_04e_JHK62C-38">
          <mxGeometry relative="1" as="geometry">
            <mxPoint x="640" y="383" as="targetPoint" />
            <Array as="points">
              <mxPoint x="500" y="380" />
              <mxPoint x="610" y="380" />
              <mxPoint x="610" y="548" />
            </Array>
          </mxGeometry>
        </mxCell>
        <mxCell id="VRv8X2df5_04e_JHK62C-31" value="&lt;div&gt;pwm_control&lt;/div&gt;" style="edgeLabel;html=1;align=center;verticalAlign=middle;resizable=0;points=[];" vertex="1" connectable="0" parent="VRv8X2df5_04e_JHK62C-30">
          <mxGeometry x="0.038" y="-2" relative="1" as="geometry">
            <mxPoint x="-5" y="-165" as="offset" />
          </mxGeometry>
        </mxCell>
        <mxCell id="VRv8X2df5_04e_JHK62C-32" style="edgeStyle=orthogonalEdgeStyle;rounded=0;orthogonalLoop=1;jettySize=auto;html=1;exitX=1;exitY=0.5;exitDx=0;exitDy=0;entryX=0.75;entryY=0;entryDx=0;entryDy=0;jumpStyle=arc;jumpSize=12;" edge="1" parent="1" source="VRv8X2df5_04e_JHK62C-27" target="VRv8X2df5_04e_JHK62C-18">
          <mxGeometry relative="1" as="geometry">
            <mxPoint x="630" y="415" as="targetPoint" />
            <Array as="points">
              <mxPoint x="650" y="415" />
              <mxPoint x="650" y="750" />
            </Array>
          </mxGeometry>
        </mxCell>
        <mxCell id="VRv8X2df5_04e_JHK62C-33" value="&lt;div&gt;tt_control&lt;/div&gt;" style="edgeLabel;html=1;align=center;verticalAlign=middle;resizable=0;points=[];" vertex="1" connectable="0" parent="VRv8X2df5_04e_JHK62C-32">
          <mxGeometry x="0.1571" relative="1" as="geometry">
            <mxPoint as="offset" />
          </mxGeometry>
        </mxCell>
        <mxCell id="VRv8X2df5_04e_JHK62C-34" style="edgeStyle=orthogonalEdgeStyle;rounded=0;orthogonalLoop=1;jettySize=auto;html=1;exitX=1;exitY=0.75;exitDx=0;exitDy=0;entryX=0.25;entryY=0;entryDx=0;entryDy=0;jumpSize=12;jumpStyle=arc;" edge="1" parent="1" source="VRv8X2df5_04e_JHK62C-27" target="VRv8X2df5_04e_JHK62C-18">
          <mxGeometry relative="1" as="geometry">
            <mxPoint x="630" y="448" as="targetPoint" />
          </mxGeometry>
        </mxCell>
        <mxCell id="VRv8X2df5_04e_JHK62C-35" value="&lt;div&gt;tt_angle&lt;/div&gt;" style="edgeLabel;html=1;align=center;verticalAlign=middle;resizable=0;points=[];" vertex="1" connectable="0" parent="VRv8X2df5_04e_JHK62C-34">
          <mxGeometry x="0.1142" y="-3" relative="1" as="geometry">
            <mxPoint as="offset" />
          </mxGeometry>
        </mxCell>
        <mxCell id="VRv8X2df5_04e_JHK62C-36" style="edgeStyle=orthogonalEdgeStyle;rounded=0;orthogonalLoop=1;jettySize=auto;html=1;exitX=1;exitY=0;exitDx=0;exitDy=0;" edge="1" parent="1" source="VRv8X2df5_04e_JHK62C-27">
          <mxGeometry relative="1" as="geometry">
            <mxPoint x="650" y="290" as="targetPoint" />
          </mxGeometry>
        </mxCell>
        <mxCell id="VRv8X2df5_04e_JHK62C-37" value="ballast_algorithm_debug" style="edgeLabel;html=1;align=center;verticalAlign=middle;resizable=0;points=[];" vertex="1" connectable="0" parent="VRv8X2df5_04e_JHK62C-36">
          <mxGeometry x="-0.0547" y="6" relative="1" as="geometry">
            <mxPoint x="1" y="1" as="offset" />
          </mxGeometry>
        </mxCell>
        <mxCell id="VRv8X2df5_04e_JHK62C-27" value="&lt;div&gt;control_system.py&lt;/div&gt;" style="whiteSpace=wrap;html=1;aspect=fixed;" vertex="1" parent="1">
          <mxGeometry x="370" y="350" width="130" height="130" as="geometry" />
        </mxCell>
        <mxCell id="VRv8X2df5_04e_JHK62C-38" value="debug_interface.py" style="whiteSpace=wrap;html=1;aspect=fixed;" vertex="1" parent="1">
          <mxGeometry x="140" y="520" width="110" height="110" as="geometry" />
        </mxCell>
        <mxCell id="VRv8X2df5_04e_JHK62C-43" style="edgeStyle=orthogonalEdgeStyle;rounded=0;orthogonalLoop=1;jettySize=auto;html=1;exitX=1;exitY=0.5;exitDx=0;exitDy=0;entryX=0.445;entryY=0.018;entryDx=0;entryDy=0;entryPerimeter=0;" edge="1" parent="1" source="VRv8X2df5_04e_JHK62C-1" target="VRv8X2df5_04e_JHK62C-38">
          <mxGeometry relative="1" as="geometry" />
        </mxCell>
        <mxCell id="VRv8X2df5_04e_JHK62C-46" value="" style="endArrow=classic;html=1;rounded=0;entryX=0.991;entryY=0.927;entryDx=0;entryDy=0;edgeStyle=orthogonalEdgeStyle;jumpStyle=arc;jumpSize=12;entryPerimeter=0;" edge="1" parent="1" target="VRv8X2df5_04e_JHK62C-38">
          <mxGeometry width="50" height="50" relative="1" as="geometry">
            <mxPoint x="470" y="780" as="sourcePoint" />
            <mxPoint x="250" y="630" as="targetPoint" />
            <Array as="points">
              <mxPoint x="390" y="780" />
              <mxPoint x="390" y="622" />
            </Array>
          </mxGeometry>
        </mxCell>
        <mxCell id="VRv8X2df5_04e_JHK62C-47" value="" style="endArrow=classic;html=1;rounded=0;entryX=0.75;entryY=1;entryDx=0;entryDy=0;edgeStyle=orthogonalEdgeStyle;jumpStyle=arc;jumpSize=12;" edge="1" parent="1" target="VRv8X2df5_04e_JHK62C-38">
          <mxGeometry width="50" height="50" relative="1" as="geometry">
            <mxPoint x="650" y="660" as="sourcePoint" />
            <mxPoint x="830" y="440" as="targetPoint" />
          </mxGeometry>
        </mxCell>
        <mxCell id="VRv8X2df5_04e_JHK62C-48" value="&lt;div&gt;pwm_controller.py&lt;/div&gt;" style="whiteSpace=wrap;html=1;aspect=fixed;" vertex="1" parent="1">
          <mxGeometry x="720" y="320" width="110" height="110" as="geometry" />
        </mxCell>
        <mxCell id="VRv8X2df5_04e_JHK62C-49" value="" style="endArrow=classic;html=1;rounded=0;edgeStyle=orthogonalEdgeStyle;" edge="1" parent="1" target="VRv8X2df5_04e_JHK62C-48">
          <mxGeometry width="50" height="50" relative="1" as="geometry">
            <mxPoint x="610" y="380" as="sourcePoint" />
            <mxPoint x="860" y="470" as="targetPoint" />
          </mxGeometry>
        </mxCell>
      </root>
    </mxGraphModel>
  </diagram>
</mxfile>
